<svg id="Layer_1" data-name="Layer 1" xmlns="http://www.w3.org/2000/svg" viewBox="0 0 1000 1000"><defs><style>.cls-1{fill:#d1d3d4;fill-rule:evenodd;}</style></defs><path class="cls-1" d="M451.65,467c11.16-12.35,11.16-12.35,21.74-1a26.11,26.11,0,0,1,2.88,3.09c1.29,2,5.47,3.56,3.36,5.87s-5.81,4.51-9.9,2.1C463.9,473.66,457.93,470.5,451.65,467Z"/><path class="cls-1" d="M416.29,503.35c5.1,3.1,10.37,5.82,15,9.37,1.81,1.39-.94,3.32-1.93,4.85-1.45,2.24-3.09,4.13-6.17,2.63s-6.1-2.85-9.09-4.39c-1.7-.88-5.47-.56-4.15-3.65S412.87,505.45,416.29,503.35Z"/><path class="cls-1" d="M522.76,272c10.29,2.17,20.66,4.1,30.86,6.58,55.38,13.43,99.13,44,132.67,89.82,3.85,5.23,3.57,7.29-2.49,10.17q-78.91,37.26-157.48,75.13c-3.38,1.63-5.89,1.66-9.26-.29-10.52-6-21.16-12-32.1-17.17-4.62-2.2-3.49-3.79-1.45-6.75,3.94-5.74,8.31-11.3,10.43-19.7-9.76,3.25-14.37,11-20.65,16.5-3.76,3.25-5.55,9.72-12.7,7.52-1.46-.44-2.51,1.13-2.15,2.8,2.61,12.1-9.7,16.52-13.26,25.5-.86,2.19-4.05-.35-6-1.18-8.34-3.44-16.69-6.84-24.92-10.52-14.35-6.42-29.76-1.93-44.55-4.53-6.1-1.08-8.08,3.95-5.77,9.79,3.79,9.55,10.71,16.67,18.31,23.05s15.6,12.22,23.73,17.85c3.87,2.69,4.41,4.83.69,7.57-4.32,3.16-5.48,10.35-12.64,9.92a2.51,2.51,0,0,0-1.46.59c2,11.9-11.52,17.33-11.79,29.19,5.67-2.36,9-6.88,12.62-10.79,2.14-2.31,3.81-3.33,5.8,0a3,3,0,0,0,.56.63c11.35,11.62,11.32,11.61,4.65,26.41-1.4,3.08-2.79,6.18-4,9.36-1.57,4.24-3.64,8.76.37,12.67a13,13,0,0,0,14.14,3q14.31-5.24,28.45-10.88c17-6.77,34.08-13.53,51-20.58a15.82,15.82,0,0,1,11.33-.66c33.83,10,67.6,20.22,101.57,29.75,6,1.7,6.87,4.1,5.52,9.27-.85,3.33-3.9,7.45.19,10,4.73,3,10,4.9,16,2.2,8.59-3.87,15.45-11.33,26-11.45,3.2-.05,3-6.25,7-8.35,6.71-3.56,12.63-8.58,19-12.74,5.15-3.35,4.32-6.77.4-10.2-4.61-4-10.15-4.84-16-3.47a94.69,94.69,0,0,0-10.52,3.25c-3.82,1.4-6.57,1.69-7.3-3.59-1.15-8-7.4-11.63-13.87-14.78-5.09-2.52-8.5.54-11.91,3.8-12.23,11.71-12.26,11.66-26.1,2.62l-43.56-28.41c51.51-39.24,102.52-78.11,154.08-117.35,8.33,15.82,13.64,32.71,17,50.08C746.8,573.83,676.58,687.4,558.77,720,435.24,754.23,304.9,675.25,277.62,549.67c-27.53-126.74,52.71-248.9,179.88-273.9,5.89-1.17,12.16-.66,17.63-3.8Z"/></svg>