<svg xmlns="http://www.w3.org/2000/svg" shape-rendering="geometricPrecision" text-rendering="geometricPrecision" image-rendering="optimizeQuality" fill-rule="evenodd" clip-rule="evenodd" viewBox="0 0 512 512"><g fill-rule="nonzero"><path d="M256.002 0c70.69 0 134.691 28.658 181.017 74.985C483.343 121.308 512 185.312 512 256.002s-28.657 134.688-74.981 181.017C390.69 483.343 326.692 512 256.002 512s-134.694-28.657-181.017-74.981C28.658 390.693 0 326.692 0 256.002s28.658-134.694 74.985-181.02C121.308 28.658 185.312 0 256.002 0z"/><path fill="#fff" d="M336.861 349.763H175.143v-37.505l76.807-100.213-.901-1.799h-63.007l-5.4-48.006h153.02v37.503l-75.909 100.213.898 1.802h76.21z"/></g></svg>